<svg width="28" height="43" viewBox="0 0 28 43" fill="none" xmlns="http://www.w3.org/2000/svg">
<path fill-rule="evenodd" clip-rule="evenodd" d="M14 3.53101L22.8913 12.4226V18.6571C22.8913 19.2467 22.6571 19.8121 22.2402 20.2289C21.8233 20.6458 21.258 20.88 20.6684 20.88H7.33156C6.74204 20.88 6.17665 20.6458 5.7598 20.2289C5.34294 19.8121 5.10875 19.2467 5.10875 18.6571V12.4226L14 3.53101ZM21.4094 2.35584V7.54261L18.4456 4.57874V2.35584C18.4456 2.15932 18.5237 1.97085 18.6626 1.83189C18.8016 1.69293 18.9901 1.61487 19.1866 1.61487H20.6684C20.8649 1.61487 21.0534 1.69293 21.1924 1.83189C21.3313 1.97085 21.4094 2.15932 21.4094 2.35584Z" fill="#0DA54B"/>
<path fill-rule="evenodd" clip-rule="evenodd" d="M12.9523 0.873893C13.2302 0.596073 13.6071 0.440002 14 0.440002C14.3929 0.440002 14.7698 0.596073 15.0477 0.873893L24.8977 10.7228C25.0368 10.862 25.115 11.0507 25.115 11.2474C25.115 11.4442 25.0368 11.6329 24.8977 11.772C24.7586 11.9112 24.5699 11.9893 24.3731 11.9893C24.1764 11.9893 23.9877 11.9112 23.8485 11.772L14 1.92162L4.15146 11.772C4.01233 11.9112 3.82363 11.9893 3.62688 11.9893C3.43012 11.9893 3.24142 11.9112 3.10229 11.772C2.96316 11.6329 2.885 11.4442 2.885 11.2474C2.885 11.0507 2.96316 10.862 3.10229 10.7228L12.9523 0.873893Z" fill="#0DA54B"/>
<path d="M0.880682 40.88V33.6073H1.76136V36.8459H5.6392V33.6073H6.51989V40.88H5.6392V37.6272H1.76136V40.88H0.880682ZM10.3853 40.9936C9.89287 40.9936 9.46082 40.8765 9.08913 40.6421C8.71982 40.4077 8.43099 40.0798 8.22266 39.6584C8.01669 39.237 7.91371 38.7446 7.91371 38.1811C7.91371 37.613 8.01669 37.117 8.22266 36.6932C8.43099 36.2694 8.71982 35.9404 9.08913 35.706C9.46082 35.4716 9.89287 35.3544 10.3853 35.3544C10.8777 35.3544 11.3086 35.4716 11.6779 35.706C12.0496 35.9404 12.3384 36.2694 12.5444 36.6932C12.7527 37.117 12.8569 37.613 12.8569 38.1811C12.8569 38.7446 12.7527 39.237 12.5444 39.6584C12.3384 40.0798 12.0496 40.4077 11.6779 40.6421C11.3086 40.8765 10.8777 40.9936 10.3853 40.9936ZM10.3853 40.2408C10.7594 40.2408 11.0671 40.1449 11.3086 39.9532C11.5501 39.7614 11.7288 39.5093 11.8448 39.1968C11.9608 38.8843 12.0188 38.5457 12.0188 38.1811C12.0188 37.8166 11.9608 37.4768 11.8448 37.162C11.7288 36.8471 11.5501 36.5926 11.3086 36.3985C11.0671 36.2043 10.7594 36.1073 10.3853 36.1073C10.0112 36.1073 9.70348 36.2043 9.462 36.3985C9.22053 36.5926 9.04179 36.8471 8.92578 37.162C8.80978 37.4768 8.75178 37.8166 8.75178 38.1811C8.75178 38.5457 8.80978 38.8843 8.92578 39.1968C9.04179 39.5093 9.22053 39.7614 9.462 39.9532C9.70348 40.1449 10.0112 40.2408 10.3853 40.2408ZM14.1362 40.88V35.4255H14.9458V36.2777H15.0169C15.1305 35.9865 15.314 35.7604 15.5673 35.5995C15.8206 35.4361 16.1248 35.3544 16.4799 35.3544C16.8398 35.3544 17.1393 35.4361 17.3784 35.5995C17.6199 35.7604 17.8081 35.9865 17.943 36.2777H17.9998C18.1395 35.996 18.349 35.7723 18.6284 35.6066C18.9077 35.4385 19.2427 35.3544 19.6333 35.3544C20.121 35.3544 20.5199 35.5071 20.8301 35.8125C21.1402 36.1156 21.2953 36.5879 21.2953 37.2294V40.88H20.4572V37.2294C20.4572 36.827 20.3471 36.5393 20.127 36.3665C19.9068 36.1937 19.6475 36.1073 19.3493 36.1073C18.9657 36.1073 18.6686 36.2233 18.4579 36.4553C18.2472 36.6849 18.1419 36.9761 18.1419 37.3289V40.88H17.2896V37.1442C17.2896 36.8341 17.189 36.5843 16.9877 36.3949C16.7865 36.2032 16.5273 36.1073 16.21 36.1073C15.9922 36.1073 15.7886 36.1653 15.5993 36.2813C15.4122 36.3973 15.2607 36.5583 15.1447 36.7642C15.0311 36.9678 14.9743 37.2034 14.9743 37.4709V40.88H14.1362ZM25.1145 40.9936C24.589 40.9936 24.1356 40.8776 23.7544 40.6456C23.3757 40.4113 23.0833 40.0846 22.8773 39.6655C22.6737 39.2441 22.5719 38.7541 22.5719 38.1953C22.5719 37.6366 22.6737 37.1442 22.8773 36.7181C23.0833 36.2896 23.3697 35.9558 23.7367 35.7167C24.106 35.4752 24.5369 35.3544 25.0293 35.3544C25.3134 35.3544 25.5939 35.4018 25.8709 35.4965C26.1479 35.5912 26.4 35.7451 26.6273 35.9581C26.8546 36.1688 27.0357 36.4482 27.1706 36.7962C27.3056 37.1442 27.373 37.5727 27.373 38.0817V38.4368H23.1685V37.7124H26.5208C26.5208 37.4046 26.4592 37.13 26.3361 36.8885C26.2154 36.6471 26.0426 36.4565 25.8176 36.3168C25.5951 36.1771 25.3323 36.1073 25.0293 36.1073C24.6955 36.1073 24.4067 36.1901 24.1628 36.3559C23.9213 36.5192 23.7355 36.7323 23.6053 36.9951C23.4751 37.2578 23.41 37.5396 23.41 37.8402V38.3232C23.41 38.7351 23.481 39.0843 23.623 39.3708C23.7675 39.6549 23.9675 39.8715 24.2232 40.0206C24.4789 40.1674 24.776 40.2408 25.1145 40.2408C25.3347 40.2408 25.5336 40.21 25.7111 40.1485C25.891 40.0846 26.0461 39.9899 26.1763 39.8644C26.3065 39.7365 26.4071 39.5779 26.4782 39.3885L27.2878 39.6158C27.2026 39.8904 27.0594 40.1319 26.8581 40.3402C26.6569 40.5462 26.4083 40.7072 26.1124 40.8232C25.8165 40.9368 25.4838 40.9936 25.1145 40.9936Z" fill="#0DA54B"/>
</svg>
