<svg width="28" height="43" viewBox="0 0 28 43" fill="none" xmlns="http://www.w3.org/2000/svg">
<path fill-rule="evenodd" clip-rule="evenodd" d="M5.10876 18.2171V8.58454H6.59063V18.2171C6.59063 18.4136 6.6687 18.6021 6.80765 18.7411C6.9466 18.88 7.13506 18.9581 7.33157 18.9581H20.6684C20.865 18.9581 21.0534 18.88 21.1924 18.7411C21.3313 18.6021 21.4094 18.4136 21.4094 18.2171V8.58454H22.8913V18.2171C22.8913 18.8067 22.6571 19.3721 22.2402 19.7889C21.8234 20.2058 21.258 20.44 20.6684 20.44H7.33157C6.74204 20.44 6.17666 20.2058 5.7598 19.7889C5.34295 19.3721 5.10876 18.8067 5.10876 18.2171ZM21.4094 1.91583V7.1026L18.4456 4.13873V1.91583C18.4456 1.71932 18.5237 1.53085 18.6627 1.39189C18.8016 1.25293 18.9901 1.17487 19.1866 1.17487H20.6684C20.865 1.17487 21.0534 1.25293 21.1924 1.39189C21.3313 1.53085 21.4094 1.71932 21.4094 1.91583Z" fill="black"/>
<path fill-rule="evenodd" clip-rule="evenodd" d="M12.9523 0.43389C13.2302 0.15607 13.6071 0 14 0C14.3929 0 14.7698 0.15607 15.0477 0.43389L24.8977 10.2828C25.0368 10.422 25.115 10.6107 25.115 10.8074C25.115 11.0042 25.0368 11.1929 24.8977 11.332C24.7586 11.4712 24.5699 11.5493 24.3731 11.5493C24.1764 11.5493 23.9877 11.4712 23.8485 11.332L14 1.48162L4.15146 11.332C4.01233 11.4712 3.82363 11.5493 3.62688 11.5493C3.43012 11.5493 3.24142 11.4712 3.10229 11.332C2.96316 11.1929 2.885 11.0042 2.885 10.8074C2.885 10.6107 2.96316 10.422 3.10229 10.2828L12.9523 0.43389Z" fill="black"/>
<path d="M0.880682 40.44V33.1673H1.76136V36.4059H5.6392V33.1673H6.51989V40.44H5.6392V37.1872H1.76136V40.44H0.880682ZM10.3853 40.5536C9.89287 40.5536 9.46082 40.4365 9.08913 40.2021C8.71982 39.9677 8.43099 39.6398 8.22266 39.2184C8.01669 38.797 7.91371 38.3046 7.91371 37.7411C7.91371 37.173 8.01669 36.677 8.22266 36.2532C8.43099 35.8294 8.71982 35.5004 9.08913 35.266C9.46082 35.0316 9.89287 34.9144 10.3853 34.9144C10.8777 34.9144 11.3086 35.0316 11.6779 35.266C12.0496 35.5004 12.3384 35.8294 12.5444 36.2532C12.7527 36.677 12.8569 37.173 12.8569 37.7411C12.8569 38.3046 12.7527 38.797 12.5444 39.2184C12.3384 39.6398 12.0496 39.9677 11.6779 40.2021C11.3086 40.4365 10.8777 40.5536 10.3853 40.5536ZM10.3853 39.8008C10.7594 39.8008 11.0671 39.7049 11.3086 39.5132C11.5501 39.3214 11.7288 39.0693 11.8448 38.7568C11.9608 38.4443 12.0188 38.1057 12.0188 37.7411C12.0188 37.3766 11.9608 37.0368 11.8448 36.722C11.7288 36.4071 11.5501 36.1526 11.3086 35.9585C11.0671 35.7643 10.7594 35.6673 10.3853 35.6673C10.0112 35.6673 9.70348 35.7643 9.462 35.9585C9.22053 36.1526 9.04179 36.4071 8.92578 36.722C8.80978 37.0368 8.75178 37.3766 8.75178 37.7411C8.75178 38.1057 8.80978 38.4443 8.92578 38.7568C9.04179 39.0693 9.22053 39.3214 9.462 39.5132C9.70348 39.7049 10.0112 39.8008 10.3853 39.8008ZM14.1362 40.44V34.9855H14.9458V35.8377H15.0169C15.1305 35.5465 15.314 35.3204 15.5673 35.1595C15.8206 34.9961 16.1248 34.9144 16.4799 34.9144C16.8398 34.9144 17.1393 34.9961 17.3784 35.1595C17.6199 35.3204 17.8081 35.5465 17.943 35.8377H17.9998C18.1395 35.556 18.349 35.3323 18.6284 35.1666C18.9077 34.9985 19.2427 34.9144 19.6333 34.9144C20.121 34.9144 20.5199 35.0671 20.8301 35.3725C21.1402 35.6756 21.2953 36.1479 21.2953 36.7894V40.44H20.4572V36.7894C20.4572 36.387 20.3471 36.0993 20.127 35.9265C19.9068 35.7537 19.6475 35.6673 19.3493 35.6673C18.9657 35.6673 18.6686 35.7833 18.4579 36.0153C18.2472 36.2449 18.1419 36.5361 18.1419 36.8889V40.44H17.2896V36.7042C17.2896 36.3941 17.189 36.1443 16.9877 35.9549C16.7865 35.7632 16.5273 35.6673 16.21 35.6673C15.9922 35.6673 15.7886 35.7253 15.5993 35.8413C15.4122 35.9573 15.2607 36.1183 15.1447 36.3242C15.0311 36.5278 14.9743 36.7634 14.9743 37.0309V40.44H14.1362ZM25.1145 40.5536C24.589 40.5536 24.1356 40.4376 23.7544 40.2056C23.3757 39.9713 23.0833 39.6445 22.8773 39.2255C22.6737 38.8041 22.5719 38.3141 22.5719 37.7553C22.5719 37.1966 22.6737 36.7042 22.8773 36.2781C23.0833 35.8496 23.3697 35.5158 23.7367 35.2766C24.106 35.0352 24.5369 34.9144 25.0293 34.9144C25.3134 34.9144 25.5939 34.9618 25.8709 35.0565C26.1479 35.1512 26.4 35.3051 26.6273 35.5181C26.8546 35.7288 27.0357 36.0082 27.1706 36.3562C27.3056 36.7042 27.373 37.1327 27.373 37.6417V37.9968H23.1685V37.2724H26.5208C26.5208 36.9646 26.4592 36.69 26.3361 36.4485C26.2154 36.207 26.0426 36.0165 25.8176 35.8768C25.5951 35.7371 25.3323 35.6673 25.0293 35.6673C24.6955 35.6673 24.4067 35.7501 24.1628 35.9159C23.9213 36.0792 23.7355 36.2923 23.6053 36.5551C23.4751 36.8178 23.41 37.0996 23.41 37.4002V37.8832C23.41 38.2951 23.481 38.6443 23.623 38.9308C23.7675 39.2149 23.9675 39.4315 24.2232 39.5806C24.4789 39.7274 24.776 39.8008 25.1145 39.8008C25.3347 39.8008 25.5336 39.77 25.7111 39.7085C25.891 39.6445 26.0461 39.5499 26.1763 39.4244C26.3065 39.2965 26.4071 39.1379 26.4782 38.9485L27.2878 39.1758C27.2026 39.4504 27.0594 39.6919 26.8581 39.9002C26.6569 40.1062 26.4083 40.2672 26.1124 40.3832C25.8165 40.4968 25.4838 40.5536 25.1145 40.5536Z" fill="black"/>
</svg>
