<svg width="60" height="44" viewBox="0 0 60 44" fill="none" xmlns="http://www.w3.org/2000/svg">
<path d="M30 21.3248C30.7069 21.3248 31.3849 21.044 31.8848 20.5441C32.3846 20.0443 32.6655 19.3663 32.6655 18.6594H27.3345C27.3345 19.3663 27.6154 20.0443 28.1152 20.5441C28.6151 21.044 29.2931 21.3248 30 21.3248ZM30 2.55734L28.9378 2.77191C27.733 3.0174 26.65 3.67164 25.8721 4.6239C25.0942 5.57616 24.6692 6.76795 24.6691 7.99754C24.6691 8.8345 24.4905 10.9255 24.0574 12.9846C23.8441 14.0068 23.5563 15.0717 23.1738 15.9939H36.8262C36.4437 15.0717 36.1572 14.0082 35.9426 12.9846C35.5095 10.9255 35.3309 8.8345 35.3309 7.99754C35.3305 6.76818 34.9054 5.5767 34.1275 4.62472C33.3497 3.67273 32.2668 3.01869 31.0622 2.77324L30 2.55601V2.55734ZM38.2896 15.9939C38.5868 16.5896 38.9306 17.0614 39.3291 17.3266H20.6709C21.0694 17.0614 21.4132 16.5896 21.7104 15.9939C22.9099 13.595 23.3364 9.17034 23.3364 7.99754C23.3364 4.77234 25.6287 2.08022 28.6739 1.46584C28.6553 1.28052 28.6758 1.09337 28.734 0.916449C28.7921 0.739525 28.8867 0.576758 29.0117 0.438645C29.1366 0.300532 29.2891 0.19014 29.4594 0.114587C29.6296 0.0390349 29.8138 0 30 0C30.1862 0 30.3704 0.0390349 30.5406 0.114587C30.7109 0.19014 30.8634 0.300532 30.9883 0.438645C31.1133 0.576758 31.2079 0.739525 31.2661 0.916449C31.3242 1.09337 31.3447 1.28052 31.3261 1.46584C32.8324 1.77223 34.1866 2.58981 35.1593 3.78012C36.132 4.97044 36.6635 6.46034 36.6637 7.99754C36.6637 9.17034 37.0901 13.595 38.2896 15.9939Z" fill="black"/>
<path d="M6.64773 34.0521V41.3248H5.79545L1.83239 35.6146H1.76136V41.3248H0.880682V34.0521H1.73295L5.71023 39.7765H5.78125V34.0521H6.64773ZM10.5123 41.4385C10.0198 41.4385 9.58777 41.3213 9.21609 41.0869C8.84677 40.8525 8.55794 40.5246 8.34961 40.1032C8.14364 39.6818 8.04066 39.1894 8.04066 38.626C8.04066 38.0578 8.14364 37.5618 8.34961 37.138C8.55794 36.7143 8.84677 36.3852 9.21609 36.1508C9.58777 35.9164 10.0198 35.7993 10.5123 35.7993C11.0047 35.7993 11.4355 35.9164 11.8049 36.1508C12.1766 36.3852 12.4654 36.7143 12.6713 37.138C12.8797 37.5618 12.9838 38.0578 12.9838 38.626C12.9838 39.1894 12.8797 39.6818 12.6713 40.1032C12.4654 40.5246 12.1766 40.8525 11.8049 41.0869C11.4355 41.3213 11.0047 41.4385 10.5123 41.4385ZM10.5123 40.6856C10.8863 40.6856 11.1941 40.5897 11.4355 40.398C11.677 40.2062 11.8558 39.9541 11.9718 39.6416C12.0878 39.3291 12.1458 38.9905 12.1458 38.626C12.1458 38.2614 12.0878 37.9217 11.9718 37.6068C11.8558 37.2919 11.677 37.0374 11.4355 36.8433C11.1941 36.6492 10.8863 36.5521 10.5123 36.5521C10.1382 36.5521 9.83043 36.6492 9.58896 36.8433C9.34748 37.0374 9.16874 37.2919 9.05273 37.6068C8.93673 37.9217 8.87873 38.2614 8.87873 38.626C8.87873 38.9905 8.93673 39.3291 9.05273 39.6416C9.16874 39.9541 9.34748 40.2062 9.58896 40.398C9.83043 40.5897 10.1382 40.6856 10.5123 40.6856ZM16.6353 35.8703V36.5805H13.8086V35.8703H16.6353ZM14.6325 34.5635H15.4705V39.7623C15.4705 39.9991 15.5049 40.1766 15.5735 40.295C15.6445 40.411 15.7345 40.4891 15.8434 40.5294C15.9547 40.5673 16.0719 40.5862 16.195 40.5862C16.2873 40.5862 16.363 40.5815 16.4222 40.572C16.4814 40.5602 16.5288 40.5507 16.5643 40.5436L16.7347 41.2964C16.6779 41.3177 16.5986 41.339 16.4968 41.3603C16.395 41.384 16.266 41.3959 16.1097 41.3959C15.873 41.3959 15.641 41.345 15.4137 41.2432C15.1888 41.1414 15.0018 40.9863 14.8526 40.778C14.7058 40.5696 14.6325 40.3068 14.6325 39.9896V34.5635ZM17.896 41.3248V35.8703H18.734V41.3248H17.896ZM18.3221 34.9612C18.1587 34.9612 18.0179 34.9056 17.8995 34.7943C17.7835 34.683 17.7255 34.5493 17.7255 34.393C17.7255 34.2368 17.7835 34.103 17.8995 33.9917C18.0179 33.8805 18.1587 33.8248 18.3221 33.8248C18.4854 33.8248 18.6251 33.8805 18.7411 33.9917C18.8595 34.103 18.9187 34.2368 18.9187 34.393C18.9187 34.5493 18.8595 34.683 18.7411 34.7943C18.6251 34.9056 18.4854 34.9612 18.3221 34.9612ZM22.698 35.8703V36.5805H19.7576V35.8703H22.698ZM20.6383 41.3248V35.1174C20.6383 34.8049 20.7117 34.5445 20.8585 34.3362C21.0053 34.1279 21.1958 33.9716 21.4302 33.8674C21.6646 33.7633 21.912 33.7112 22.1724 33.7112C22.3784 33.7112 22.5465 33.7278 22.6767 33.7609C22.8069 33.7941 22.9039 33.8248 22.9679 33.8532L22.7264 34.5777C22.6838 34.5635 22.6246 34.5457 22.5488 34.5244C22.4754 34.5031 22.3784 34.4924 22.2576 34.4924C21.9806 34.4924 21.7806 34.5623 21.6575 34.702C21.5368 34.8416 21.4764 35.0464 21.4764 35.3163V41.3248H20.6383ZM23.8725 41.3248V35.8703H24.7106V41.3248H23.8725ZM24.2987 34.9612C24.1353 34.9612 23.9944 34.9056 23.8761 34.7943C23.7601 34.683 23.7021 34.5493 23.7021 34.393C23.7021 34.2368 23.7601 34.103 23.8761 33.9917C23.9944 33.8805 24.1353 33.8248 24.2987 33.8248C24.462 33.8248 24.6017 33.8805 24.7177 33.9917C24.8361 34.103 24.8952 34.2368 24.8952 34.393C24.8952 34.5493 24.8361 34.683 24.7177 34.7943C24.6017 34.9056 24.462 34.9612 24.2987 34.9612ZM28.4615 41.4385C27.9501 41.4385 27.5098 41.3177 27.1404 41.0762C26.7711 40.8348 26.487 40.5021 26.2882 40.0784C26.0893 39.6546 25.9899 39.1705 25.9899 38.626C25.9899 38.072 26.0917 37.5831 26.2953 37.1593C26.5012 36.7332 26.7877 36.4006 27.1547 36.1615C27.524 35.92 27.9548 35.7993 28.4473 35.7993C28.8308 35.7993 29.1764 35.8703 29.4842 36.0123C29.792 36.1544 30.0441 36.3532 30.2406 36.6089C30.4371 36.8646 30.559 37.1629 30.6064 37.5038H29.7683C29.7044 37.2552 29.5623 37.0351 29.3422 36.8433C29.1243 36.6492 28.8308 36.5521 28.4615 36.5521C28.1348 36.5521 27.8483 36.6373 27.6021 36.8078C27.3583 36.9759 27.1677 37.2138 27.0304 37.5216C26.8954 37.827 26.8279 38.1856 26.8279 38.5976C26.8279 39.019 26.8942 39.3859 27.0268 39.6984C27.1618 40.0109 27.3511 40.2536 27.595 40.4264C27.8412 40.5992 28.13 40.6856 28.4615 40.6856C28.6793 40.6856 28.877 40.6477 29.0545 40.572C29.2321 40.4962 29.3824 40.3873 29.5055 40.2453C29.6286 40.1032 29.7162 39.9328 29.7683 39.7339H30.6064C30.559 40.0559 30.4418 40.3459 30.2548 40.6039C30.0701 40.8596 29.8251 41.0632 29.5197 41.2147C29.2167 41.3639 28.8639 41.4385 28.4615 41.4385ZM33.4366 41.4527C33.091 41.4527 32.7773 41.3876 32.4956 41.2574C32.2138 41.1248 31.9901 40.9342 31.8244 40.6856C31.6587 40.4347 31.5758 40.1316 31.5758 39.7765C31.5758 39.464 31.6374 39.2107 31.7605 39.0166C31.8836 38.8201 32.0481 38.6662 32.2541 38.5549C32.46 38.4437 32.6873 38.3608 32.9359 38.3064C33.1868 38.2495 33.439 38.2046 33.6923 38.1714C34.0237 38.1288 34.2924 38.0968 34.4984 38.0755C34.7067 38.0519 34.8583 38.0128 34.9529 37.9584C35.05 37.9039 35.0985 37.8092 35.0985 37.6743V37.6459C35.0985 37.2955 35.0027 37.0232 34.8109 36.8291C34.6215 36.635 34.3339 36.5379 33.948 36.5379C33.5479 36.5379 33.2342 36.6255 33.0069 36.8007C32.7797 36.9759 32.6199 37.1629 32.5275 37.3618L31.7321 37.0777C31.8741 36.7462 32.0635 36.4882 32.3002 36.3035C32.5394 36.1165 32.7998 35.9863 33.0815 35.9129C33.3656 35.8371 33.6449 35.7993 33.9196 35.7993C34.0948 35.7993 34.296 35.8206 34.5233 35.8632C34.7529 35.9034 34.9743 35.9875 35.1873 36.1153C35.4028 36.2432 35.5815 36.4361 35.7235 36.6941C35.8656 36.9522 35.9366 37.2978 35.9366 37.7311V41.3248H35.0985V40.5862H35.0559C34.9991 40.7046 34.9044 40.8312 34.7718 40.9662C34.6393 41.1011 34.4629 41.2159 34.2427 41.3106C34.0225 41.4053 33.7538 41.4527 33.4366 41.4527ZM33.5645 40.6998C33.8959 40.6998 34.1752 40.6347 34.4025 40.5045C34.6322 40.3743 34.805 40.2062 34.921 40.0003C35.0394 39.7943 35.0985 39.5777 35.0985 39.3504V38.5834C35.063 38.626 34.9849 38.665 34.8642 38.7005C34.7458 38.7337 34.6085 38.7633 34.4522 38.7893C34.2984 38.813 34.148 38.8343 34.0012 38.8532C33.8568 38.8698 33.7396 38.884 33.6497 38.8959C33.4319 38.9243 33.2283 38.9704 33.0389 39.0343C32.8519 39.0959 32.7003 39.1894 32.5843 39.3149C32.4707 39.438 32.4139 39.6061 32.4139 39.8191C32.4139 40.1103 32.5216 40.3305 32.737 40.4797C32.9548 40.6264 33.2306 40.6998 33.5645 40.6998ZM39.8384 35.8703V36.5805H37.0117V35.8703H39.8384ZM37.8356 34.5635H38.6737V39.7623C38.6737 39.9991 38.708 40.1766 38.7766 40.295C38.8477 40.411 38.9376 40.4891 39.0465 40.5294C39.1578 40.5673 39.275 40.5862 39.3981 40.5862C39.4904 40.5862 39.5662 40.5815 39.6254 40.572C39.6845 40.5602 39.7319 40.5507 39.7674 40.5436L39.9379 41.2964C39.881 41.3177 39.8017 41.339 39.6999 41.3603C39.5981 41.384 39.4691 41.3959 39.3129 41.3959C39.0761 41.3959 38.8441 41.345 38.6168 41.2432C38.3919 41.1414 38.2049 40.9863 38.0558 40.778C37.909 40.5696 37.8356 40.3068 37.8356 39.9896V34.5635ZM41.0991 41.3248V35.8703H41.9371V41.3248H41.0991ZM41.5252 34.9612C41.3619 34.9612 41.221 34.9056 41.1026 34.7943C40.9866 34.683 40.9286 34.5493 40.9286 34.393C40.9286 34.2368 40.9866 34.103 41.1026 33.9917C41.221 33.8805 41.3619 33.8248 41.5252 33.8248C41.6886 33.8248 41.8282 33.8805 41.9442 33.9917C42.0626 34.103 42.1218 34.2368 42.1218 34.393C42.1218 34.5493 42.0626 34.683 41.9442 34.7943C41.8282 34.9056 41.6886 34.9612 41.5252 34.9612ZM45.688 41.4385C45.1956 41.4385 44.7636 41.3213 44.3919 41.0869C44.0225 40.8525 43.7337 40.5246 43.5254 40.1032C43.3194 39.6818 43.2164 39.1894 43.2164 38.626C43.2164 38.0578 43.3194 37.5618 43.5254 37.138C43.7337 36.7143 44.0225 36.3852 44.3919 36.1508C44.7636 35.9164 45.1956 35.7993 45.688 35.7993C46.1805 35.7993 46.6113 35.9164 46.9806 36.1508C47.3523 36.3852 47.6412 36.7143 47.8471 37.138C48.0555 37.5618 48.1596 38.0578 48.1596 38.626C48.1596 39.1894 48.0555 39.6818 47.8471 40.1032C47.6412 40.5246 47.3523 40.8525 46.9806 41.0869C46.6113 41.3213 46.1805 41.4385 45.688 41.4385ZM45.688 40.6856C46.0621 40.6856 46.3699 40.5897 46.6113 40.398C46.8528 40.2062 47.0315 39.9541 47.1475 39.6416C47.2636 39.3291 47.3216 38.9905 47.3216 38.626C47.3216 38.2614 47.2636 37.9217 47.1475 37.6068C47.0315 37.2919 46.8528 37.0374 46.6113 36.8433C46.3699 36.6492 46.0621 36.5521 45.688 36.5521C45.314 36.5521 45.0062 36.6492 44.7647 36.8433C44.5233 37.0374 44.3445 37.2919 44.2285 37.6068C44.1125 37.9217 44.0545 38.2614 44.0545 38.626C44.0545 38.9905 44.1125 39.3291 44.2285 39.6416C44.3445 39.9541 44.5233 40.2062 44.7647 40.398C45.0062 40.5897 45.314 40.6856 45.688 40.6856ZM50.277 38.0436V41.3248H49.4389V35.8703H50.2486V36.7226H50.3196C50.4474 36.4456 50.6416 36.223 50.902 36.0549C51.1624 35.8845 51.4986 35.7993 51.9105 35.7993C52.2798 35.7993 52.603 35.875 52.88 36.0265C53.157 36.1757 53.3724 36.403 53.5263 36.7084C53.6802 37.0114 53.7571 37.3949 53.7571 37.8589V41.3248H52.919V37.9157C52.919 37.4872 52.8078 37.1534 52.5852 36.9143C52.3627 36.6728 52.0573 36.5521 51.669 36.5521C51.4015 36.5521 51.1624 36.6101 50.9517 36.7261C50.7434 36.8421 50.5788 37.0114 50.4581 37.2339C50.3374 37.4565 50.277 37.7263 50.277 38.0436ZM59.1522 37.0919L58.3993 37.3049C58.352 37.1795 58.2821 37.0575 58.1898 36.9392C58.0998 36.8184 57.9767 36.719 57.8205 36.6409C57.6642 36.5628 57.4642 36.5237 57.2203 36.5237C56.8865 36.5237 56.6084 36.6006 56.3858 36.7545C56.1657 36.906 56.0556 37.099 56.0556 37.3334C56.0556 37.5417 56.1313 37.7062 56.2828 37.827C56.4344 37.9477 56.6711 38.0483 56.9931 38.1288L57.8027 38.3277C58.2904 38.446 58.6538 38.6271 58.8929 38.871C59.132 39.1125 59.2516 39.4238 59.2516 39.8049C59.2516 40.1174 59.1616 40.3968 58.9817 40.643C58.8042 40.8892 58.5556 41.0834 58.236 41.2254C57.9164 41.3674 57.5447 41.4385 57.1209 41.4385C56.5646 41.4385 56.1041 41.3177 55.7395 41.0762C55.3749 40.8348 55.1441 40.482 55.0471 40.018L55.8425 39.8191C55.9183 40.1127 56.0615 40.3329 56.2722 40.4797C56.4853 40.6264 56.7634 40.6998 57.1067 40.6998C57.4973 40.6998 57.8075 40.617 58.0371 40.4512C58.2691 40.2832 58.3851 40.0819 58.3851 39.8476C58.3851 39.6582 58.3188 39.4995 58.1863 39.3717C58.0537 39.2415 57.8501 39.1444 57.5755 39.0805L56.6664 38.8674C56.1668 38.7491 55.7999 38.5656 55.5655 38.317C55.3335 38.0661 55.2175 37.7524 55.2175 37.376C55.2175 37.0682 55.3039 36.7959 55.4767 36.5592C55.6519 36.3225 55.8899 36.1366 56.1905 36.0017C56.4935 35.8667 56.8368 35.7993 57.2203 35.7993C57.7601 35.7993 58.1839 35.9176 58.4917 36.1544C58.8018 36.3911 59.022 36.7036 59.1522 37.0919Z" fill="black"/>
</svg>
