<svg width="60" height="44" viewBox="0 0 60 44" fill="none" xmlns="http://www.w3.org/2000/svg">
<path d="M30 21.6448C30.707 21.6448 31.385 21.3641 31.885 20.8643C32.3849 20.3646 32.6657 19.6867 32.6657 18.98H27.3343C27.3343 19.6867 27.6151 20.3646 28.1151 20.8643C28.615 21.3641 29.293 21.6448 30 21.6448ZM31.3262 1.79033C31.3448 1.60506 31.3244 1.41795 31.2662 1.24107C31.208 1.06419 31.1134 0.901456 30.9884 0.763375C30.8635 0.625293 30.711 0.514926 30.5407 0.43939C30.3705 0.363855 30.1863 0.324829 30 0.324829C29.8138 0.324829 29.6296 0.363855 29.4593 0.43939C29.2891 0.514926 29.1366 0.625293 29.0116 0.763375C28.8866 0.901456 28.792 1.06419 28.7338 1.24107C28.6757 1.41795 28.6552 1.60506 28.6738 1.79033C27.1673 2.09666 25.813 2.91405 24.8402 4.10409C23.8674 5.29414 23.3359 6.7837 23.3357 8.32056C23.3357 9.78356 22.6693 16.3151 20.67 17.6475H39.33C37.3307 16.3151 36.6643 9.78356 36.6643 8.32056C36.6643 5.09608 34.3718 2.40458 31.3262 1.79033Z" fill="#0DA54B"/>
<path d="M6.64773 34.3721V41.6448H5.79545L1.83239 35.9346H1.76136V41.6448H0.880682V34.3721H1.73295L5.71023 40.0965H5.78125V34.3721H6.64773ZM10.5123 41.7585C10.0198 41.7585 9.58777 41.6413 9.21609 41.4069C8.84677 41.1725 8.55794 40.8446 8.34961 40.4232C8.14364 40.0018 8.04066 39.5094 8.04066 38.946C8.04066 38.3778 8.14364 37.8818 8.34961 37.458C8.55794 37.0343 8.84677 36.7052 9.21609 36.4708C9.58777 36.2365 10.0198 36.1193 10.5123 36.1193C11.0047 36.1193 11.4355 36.2365 11.8049 36.4708C12.1766 36.7052 12.4654 37.0343 12.6713 37.458C12.8797 37.8818 12.9838 38.3778 12.9838 38.946C12.9838 39.5094 12.8797 40.0018 12.6713 40.4232C12.4654 40.8446 12.1766 41.1725 11.8049 41.4069C11.4355 41.6413 11.0047 41.7585 10.5123 41.7585ZM10.5123 41.0056C10.8863 41.0056 11.1941 40.9098 11.4355 40.718C11.677 40.5262 11.8558 40.2741 11.9718 39.9616C12.0878 39.6491 12.1458 39.3106 12.1458 38.946C12.1458 38.5814 12.0878 38.2417 11.9718 37.9268C11.8558 37.6119 11.677 37.3574 11.4355 37.1633C11.1941 36.9692 10.8863 36.8721 10.5123 36.8721C10.1382 36.8721 9.83043 36.9692 9.58896 37.1633C9.34748 37.3574 9.16874 37.6119 9.05273 37.9268C8.93673 38.2417 8.87873 38.5814 8.87873 38.946C8.87873 39.3106 8.93673 39.6491 9.05273 39.9616C9.16874 40.2741 9.34748 40.5262 9.58896 40.718C9.83043 40.9098 10.1382 41.0056 10.5123 41.0056ZM16.6353 36.1903V36.9005H13.8086V36.1903H16.6353ZM14.6325 34.8835H15.4705V40.0823C15.4705 40.3191 15.5049 40.4966 15.5735 40.615C15.6445 40.731 15.7345 40.8091 15.8434 40.8494C15.9547 40.8873 16.0719 40.9062 16.195 40.9062C16.2873 40.9062 16.363 40.9015 16.4222 40.892C16.4814 40.8802 16.5288 40.8707 16.5643 40.8636L16.7347 41.6164C16.6779 41.6377 16.5986 41.659 16.4968 41.6803C16.395 41.704 16.266 41.7159 16.1097 41.7159C15.873 41.7159 15.641 41.665 15.4137 41.5632C15.1888 41.4614 15.0018 41.3063 14.8526 41.098C14.7058 40.8896 14.6325 40.6268 14.6325 40.3096V34.8835ZM17.896 41.6448V36.1903H18.734V41.6448H17.896ZM18.3221 35.2812C18.1587 35.2812 18.0179 35.2256 17.8995 35.1143C17.7835 35.003 17.7255 34.8693 17.7255 34.713C17.7255 34.5568 17.7835 34.423 17.8995 34.3117C18.0179 34.2005 18.1587 34.1448 18.3221 34.1448C18.4854 34.1448 18.6251 34.2005 18.7411 34.3117C18.8595 34.423 18.9187 34.5568 18.9187 34.713C18.9187 34.8693 18.8595 35.003 18.7411 35.1143C18.6251 35.2256 18.4854 35.2812 18.3221 35.2812ZM22.698 36.1903V36.9005H19.7576V36.1903H22.698ZM20.6383 41.6448V35.4375C20.6383 35.1249 20.7117 34.8645 20.8585 34.6562C21.0053 34.4479 21.1958 34.2916 21.4302 34.1874C21.6646 34.0833 21.912 34.0312 22.1724 34.0312C22.3784 34.0312 22.5465 34.0478 22.6767 34.0809C22.8069 34.1141 22.9039 34.1448 22.9679 34.1732L22.7264 34.8977C22.6838 34.8835 22.6246 34.8657 22.5488 34.8444C22.4754 34.8231 22.3784 34.8124 22.2576 34.8124C21.9806 34.8124 21.7806 34.8823 21.6575 35.022C21.5368 35.1616 21.4764 35.3664 21.4764 35.6363V41.6448H20.6383ZM23.8725 41.6448V36.1903H24.7106V41.6448H23.8725ZM24.2987 35.2812C24.1353 35.2812 23.9944 35.2256 23.8761 35.1143C23.7601 35.003 23.7021 34.8693 23.7021 34.713C23.7021 34.5568 23.7601 34.423 23.8761 34.3117C23.9944 34.2005 24.1353 34.1448 24.2987 34.1448C24.462 34.1448 24.6017 34.2005 24.7177 34.3117C24.8361 34.423 24.8952 34.5568 24.8952 34.713C24.8952 34.8693 24.8361 35.003 24.7177 35.1143C24.6017 35.2256 24.462 35.2812 24.2987 35.2812ZM28.4615 41.7585C27.9501 41.7585 27.5098 41.6377 27.1404 41.3963C26.7711 41.1548 26.487 40.8222 26.2882 40.3984C26.0893 39.9746 25.9899 39.4905 25.9899 38.946C25.9899 38.392 26.0917 37.9031 26.2953 37.4794C26.5012 37.0532 26.7877 36.7206 27.1547 36.4815C27.524 36.24 27.9548 36.1193 28.4473 36.1193C28.8308 36.1193 29.1764 36.1903 29.4842 36.3323C29.792 36.4744 30.0441 36.6732 30.2406 36.9289C30.4371 37.1846 30.559 37.4829 30.6064 37.8238H29.7683C29.7044 37.5752 29.5623 37.3551 29.3422 37.1633C29.1243 36.9692 28.8308 36.8721 28.4615 36.8721C28.1348 36.8721 27.8483 36.9573 27.6021 37.1278C27.3583 37.2959 27.1677 37.5338 27.0304 37.8416C26.8954 38.147 26.8279 38.5056 26.8279 38.9176C26.8279 39.339 26.8942 39.7059 27.0268 40.0184C27.1618 40.3309 27.3511 40.5736 27.595 40.7464C27.8412 40.9192 28.13 41.0056 28.4615 41.0056C28.6793 41.0056 28.877 40.9678 29.0545 40.892C29.2321 40.8162 29.3824 40.7073 29.5055 40.5653C29.6286 40.4232 29.7162 40.2528 29.7683 40.0539H30.6064C30.559 40.3759 30.4418 40.6659 30.2548 40.924C30.0701 41.1796 29.8251 41.3832 29.5197 41.5348C29.2167 41.6839 28.8639 41.7585 28.4615 41.7585ZM33.4366 41.7727C33.091 41.7727 32.7773 41.7076 32.4956 41.5774C32.2138 41.4448 31.9901 41.2542 31.8244 41.0056C31.6587 40.7547 31.5758 40.4517 31.5758 40.0965C31.5758 39.784 31.6374 39.5307 31.7605 39.3366C31.8836 39.1401 32.0481 38.9862 32.2541 38.8749C32.46 38.7637 32.6873 38.6808 32.9359 38.6264C33.1868 38.5696 33.439 38.5246 33.6923 38.4914C34.0237 38.4488 34.2924 38.4169 34.4984 38.3955C34.7067 38.3719 34.8583 38.3328 34.9529 38.2784C35.05 38.2239 35.0985 38.1292 35.0985 37.9943V37.9659C35.0985 37.6155 35.0027 37.3432 34.8109 37.1491C34.6215 36.955 34.3339 36.8579 33.948 36.8579C33.5479 36.8579 33.2342 36.9455 33.0069 37.1207C32.7797 37.2959 32.6199 37.4829 32.5275 37.6818L31.7321 37.3977C31.8741 37.0662 32.0635 36.8082 32.3002 36.6235C32.5394 36.4365 32.7998 36.3063 33.0815 36.2329C33.3656 36.1571 33.6449 36.1193 33.9196 36.1193C34.0948 36.1193 34.296 36.1406 34.5233 36.1832C34.7529 36.2234 34.9743 36.3075 35.1873 36.4353C35.4028 36.5632 35.5815 36.7561 35.7235 37.0142C35.8656 37.2722 35.9366 37.6178 35.9366 38.0511V41.6448H35.0985V40.9062H35.0559C34.9991 41.0246 34.9044 41.1512 34.7718 41.2862C34.6393 41.4211 34.4629 41.5359 34.2427 41.6306C34.0225 41.7253 33.7538 41.7727 33.4366 41.7727ZM33.5645 41.0198C33.8959 41.0198 34.1752 40.9547 34.4025 40.8245C34.6322 40.6943 34.805 40.5262 34.921 40.3203C35.0394 40.1143 35.0985 39.8977 35.0985 39.6704V38.9034C35.063 38.946 34.9849 38.985 34.8642 39.0205C34.7458 39.0537 34.6085 39.0833 34.4522 39.1093C34.2984 39.133 34.148 39.1543 34.0012 39.1732C33.8568 39.1898 33.7396 39.204 33.6497 39.2159C33.4319 39.2443 33.2283 39.2904 33.0389 39.3544C32.8519 39.4159 32.7003 39.5094 32.5843 39.6349C32.4707 39.758 32.4139 39.9261 32.4139 40.1392C32.4139 40.4303 32.5216 40.6505 32.737 40.7997C32.9548 40.9464 33.2306 41.0198 33.5645 41.0198ZM39.8384 36.1903V36.9005H37.0117V36.1903H39.8384ZM37.8356 34.8835H38.6737V40.0823C38.6737 40.3191 38.708 40.4966 38.7766 40.615C38.8477 40.731 38.9376 40.8091 39.0465 40.8494C39.1578 40.8873 39.275 40.9062 39.3981 40.9062C39.4904 40.9062 39.5662 40.9015 39.6254 40.892C39.6845 40.8802 39.7319 40.8707 39.7674 40.8636L39.9379 41.6164C39.881 41.6377 39.8017 41.659 39.6999 41.6803C39.5981 41.704 39.4691 41.7159 39.3129 41.7159C39.0761 41.7159 38.8441 41.665 38.6168 41.5632C38.3919 41.4614 38.2049 41.3063 38.0558 41.098C37.909 40.8896 37.8356 40.6268 37.8356 40.3096V34.8835ZM41.0991 41.6448V36.1903H41.9371V41.6448H41.0991ZM41.5252 35.2812C41.3619 35.2812 41.221 35.2256 41.1026 35.1143C40.9866 35.003 40.9286 34.8693 40.9286 34.713C40.9286 34.5568 40.9866 34.423 41.1026 34.3117C41.221 34.2005 41.3619 34.1448 41.5252 34.1448C41.6886 34.1448 41.8282 34.2005 41.9442 34.3117C42.0626 34.423 42.1218 34.5568 42.1218 34.713C42.1218 34.8693 42.0626 35.003 41.9442 35.1143C41.8282 35.2256 41.6886 35.2812 41.5252 35.2812ZM45.688 41.7585C45.1956 41.7585 44.7636 41.6413 44.3919 41.4069C44.0225 41.1725 43.7337 40.8446 43.5254 40.4232C43.3194 40.0018 43.2164 39.5094 43.2164 38.946C43.2164 38.3778 43.3194 37.8818 43.5254 37.458C43.7337 37.0343 44.0225 36.7052 44.3919 36.4708C44.7636 36.2365 45.1956 36.1193 45.688 36.1193C46.1805 36.1193 46.6113 36.2365 46.9806 36.4708C47.3523 36.7052 47.6412 37.0343 47.8471 37.458C48.0555 37.8818 48.1596 38.3778 48.1596 38.946C48.1596 39.5094 48.0555 40.0018 47.8471 40.4232C47.6412 40.8446 47.3523 41.1725 46.9806 41.4069C46.6113 41.6413 46.1805 41.7585 45.688 41.7585ZM45.688 41.0056C46.0621 41.0056 46.3699 40.9098 46.6113 40.718C46.8528 40.5262 47.0315 40.2741 47.1475 39.9616C47.2636 39.6491 47.3216 39.3106 47.3216 38.946C47.3216 38.5814 47.2636 38.2417 47.1475 37.9268C47.0315 37.6119 46.8528 37.3574 46.6113 37.1633C46.3699 36.9692 46.0621 36.8721 45.688 36.8721C45.314 36.8721 45.0062 36.9692 44.7647 37.1633C44.5233 37.3574 44.3445 37.6119 44.2285 37.9268C44.1125 38.2417 44.0545 38.5814 44.0545 38.946C44.0545 39.3106 44.1125 39.6491 44.2285 39.9616C44.3445 40.2741 44.5233 40.5262 44.7647 40.718C45.0062 40.9098 45.314 41.0056 45.688 41.0056ZM50.277 38.3636V41.6448H49.4389V36.1903H50.2486V37.0426H50.3196C50.4474 36.7656 50.6416 36.543 50.902 36.375C51.1624 36.2045 51.4986 36.1193 51.9105 36.1193C52.2798 36.1193 52.603 36.195 52.88 36.3465C53.157 36.4957 53.3724 36.723 53.5263 37.0284C53.6802 37.3314 53.7571 37.7149 53.7571 38.1789V41.6448H52.919V38.2357C52.919 37.8072 52.8078 37.4734 52.5852 37.2343C52.3627 36.9928 52.0573 36.8721 51.669 36.8721C51.4015 36.8721 51.1624 36.9301 50.9517 37.0461C50.7434 37.1621 50.5788 37.3314 50.4581 37.5539C50.3374 37.7765 50.277 38.0464 50.277 38.3636ZM59.1522 37.4119L58.3993 37.6249C58.352 37.4995 58.2821 37.3776 58.1898 37.2592C58.0998 37.1384 57.9767 37.039 57.8205 36.9609C57.6642 36.8828 57.4642 36.8437 57.2203 36.8437C56.8865 36.8437 56.6084 36.9206 56.3858 37.0745C56.1657 37.226 56.0556 37.419 56.0556 37.6534C56.0556 37.8617 56.1313 38.0262 56.2828 38.147C56.4344 38.2677 56.6711 38.3683 56.9931 38.4488L57.8027 38.6477C58.2904 38.766 58.6538 38.9472 58.8929 39.191C59.132 39.4325 59.2516 39.7438 59.2516 40.125C59.2516 40.4375 59.1616 40.7168 58.9817 40.963C58.8042 41.2092 58.5556 41.4034 58.236 41.5454C57.9164 41.6875 57.5447 41.7585 57.1209 41.7585C56.5646 41.7585 56.1041 41.6377 55.7395 41.3963C55.3749 41.1548 55.1441 40.802 55.0471 40.338L55.8425 40.1392C55.9183 40.4327 56.0615 40.6529 56.2722 40.7997C56.4853 40.9464 56.7634 41.0198 57.1067 41.0198C57.4973 41.0198 57.8075 40.937 58.0371 40.7713C58.2691 40.6032 58.3851 40.4019 58.3851 40.1676C58.3851 39.9782 58.3188 39.8196 58.1863 39.6917C58.0537 39.5615 57.8501 39.4644 57.5755 39.4005L56.6664 39.1875C56.1668 39.0691 55.7999 38.8856 55.5655 38.637C55.3335 38.3861 55.2175 38.0724 55.2175 37.696C55.2175 37.3882 55.3039 37.116 55.4767 36.8792C55.6519 36.6425 55.8899 36.4566 56.1905 36.3217C56.4935 36.1867 56.8368 36.1193 57.2203 36.1193C57.7601 36.1193 58.1839 36.2376 58.4917 36.4744C58.8018 36.7111 59.022 37.0236 59.1522 37.4119Z" fill="#0DA54B"/>
</svg>
