<svg width="31" height="44" viewBox="0 0 31 44" fill="none" xmlns="http://www.w3.org/2000/svg">
<path d="M15.5 10.2176C16.8549 10.2176 18.1544 9.67934 19.1125 8.72126C20.0705 7.76317 20.6088 6.46373 20.6088 5.1088C20.6088 3.75386 20.0705 2.45442 19.1125 1.49633C18.1544 0.538247 16.8549 0 15.5 0C14.1451 0 12.8456 0.538247 11.8875 1.49633C10.9295 2.45442 10.3912 3.75386 10.3912 5.1088C10.3912 6.46373 10.9295 7.76317 11.8875 8.72126C12.8456 9.67934 14.1451 10.2176 15.5 10.2176ZM18.9059 5.1088C18.9059 6.01209 18.547 6.87838 17.9083 7.5171C17.2696 8.15583 16.4033 8.51466 15.5 8.51466C14.5967 8.51466 13.7304 8.15583 13.0917 7.5171C12.453 6.87838 12.0941 6.01209 12.0941 5.1088C12.0941 4.2055 12.453 3.33921 13.0917 2.70049C13.7304 2.06176 14.5967 1.70293 15.5 1.70293C16.4033 1.70293 17.2696 2.06176 17.9083 2.70049C18.547 3.33921 18.9059 4.2055 18.9059 5.1088ZM25.7176 18.7323C25.7176 20.4352 24.0147 20.4352 24.0147 20.4352H6.98534C6.98534 20.4352 5.28241 20.4352 5.28241 18.7323C5.28241 17.0293 6.98534 11.9205 15.5 11.9205C24.0147 11.9205 25.7176 17.0293 25.7176 18.7323ZM24.0147 18.7254C24.013 18.3065 23.7524 17.0463 22.5978 15.8918C21.4875 14.7814 19.398 13.6235 15.5 13.6235C11.6003 13.6235 9.51249 14.7814 8.40218 15.8918C7.24759 17.0463 6.98875 18.3065 6.98534 18.7254H24.0147Z" fill="black"/>
<path d="M0.880682 41.4352V34.1625H3.33807C3.90862 34.1625 4.375 34.2654 4.73722 34.4714C5.1018 34.675 5.37169 34.9508 5.54688 35.2988C5.72206 35.6468 5.80966 36.0351 5.80966 36.4636C5.80966 36.8921 5.72206 37.2815 5.54688 37.6319C5.37405 37.9823 5.10653 38.2616 4.74432 38.47C4.3821 38.6759 3.91809 38.7789 3.35227 38.7789H1.59091V37.9977H3.32386C3.71449 37.9977 4.02817 37.9302 4.26491 37.7953C4.50166 37.6603 4.6733 37.478 4.77983 37.2484C4.88873 37.0164 4.94318 36.7548 4.94318 36.4636C4.94318 36.1724 4.88873 35.912 4.77983 35.6823C4.6733 35.4527 4.50047 35.2728 4.26136 35.1426C4.02225 35.01 3.70502 34.9437 3.30966 34.9437H1.76136V41.4352H0.880682ZM7.1147 41.4352V35.9806H7.92436V36.8045H7.98118C8.08061 36.5346 8.26054 36.3156 8.52095 36.1475C8.78137 35.9795 9.07493 35.8954 9.40163 35.8954C9.46319 35.8954 9.54013 35.8966 9.63246 35.899C9.72479 35.9013 9.79463 35.9049 9.84197 35.9096V36.7619C9.81357 36.7548 9.74846 36.7441 9.64666 36.7299C9.54723 36.7134 9.44188 36.7051 9.33061 36.7051C9.06546 36.7051 8.82872 36.7607 8.62038 36.872C8.41442 36.9809 8.25107 37.1324 8.13033 37.3265C8.01196 37.5183 7.95277 37.7373 7.95277 37.9835V41.4352H7.1147ZM12.8853 41.5488C12.3929 41.5488 11.9608 41.4316 11.5891 41.1973C11.2198 40.9629 10.931 40.635 10.7227 40.2136C10.5167 39.7922 10.4137 39.2998 10.4137 38.7363C10.4137 38.1681 10.5167 37.6722 10.7227 37.2484C10.931 36.8246 11.2198 36.4955 11.5891 36.2612C11.9608 36.0268 12.3929 35.9096 12.8853 35.9096C13.3777 35.9096 13.8086 36.0268 14.1779 36.2612C14.5496 36.4955 14.8384 36.8246 15.0444 37.2484C15.2527 37.6722 15.3569 38.1681 15.3569 38.7363C15.3569 39.2998 15.2527 39.7922 15.0444 40.2136C14.8384 40.635 14.5496 40.9629 14.1779 41.1973C13.8086 41.4316 13.3777 41.5488 12.8853 41.5488ZM12.8853 40.796C13.2594 40.796 13.5671 40.7001 13.8086 40.5083C14.0501 40.3166 14.2288 40.0644 14.3448 39.7519C14.4608 39.4394 14.5188 39.1009 14.5188 38.7363C14.5188 38.3717 14.4608 38.032 14.3448 37.7171C14.2288 37.4023 14.0501 37.1478 13.8086 36.9536C13.5671 36.7595 13.2594 36.6625 12.8853 36.6625C12.5112 36.6625 12.2035 36.7595 11.962 36.9536C11.7205 37.1478 11.5418 37.4023 11.4258 37.7171C11.3098 38.032 11.2518 38.3717 11.2518 38.7363C11.2518 39.1009 11.3098 39.4394 11.4258 39.7519C11.5418 40.0644 11.7205 40.3166 11.962 40.5083C12.2035 40.7001 12.5112 40.796 12.8853 40.796ZM19.0652 35.9806V36.6909H16.1248V35.9806H19.0652ZM17.0055 41.4352V35.2278C17.0055 34.9153 17.0789 34.6549 17.2257 34.4465C17.3725 34.2382 17.563 34.082 17.7974 33.9778C18.0318 33.8736 18.2792 33.8215 18.5396 33.8215C18.7456 33.8215 18.9136 33.8381 19.0439 33.8713C19.1741 33.9044 19.2711 33.9352 19.335 33.9636L19.0936 34.688C19.051 34.6738 18.9918 34.6561 18.916 34.6348C18.8426 34.6134 18.7456 34.6028 18.6248 34.6028C18.3478 34.6028 18.1478 34.6726 18.0247 34.8123C17.9039 34.952 17.8436 35.1568 17.8436 35.4267V41.4352H17.0055ZM20.2397 41.4352V35.9806H21.0778V41.4352H20.2397ZM20.6658 35.0715C20.5025 35.0715 20.3616 35.0159 20.2433 34.9046C20.1272 34.7934 20.0692 34.6596 20.0692 34.5034C20.0692 34.3471 20.1272 34.2134 20.2433 34.1021C20.3616 33.9908 20.5025 33.9352 20.6658 33.9352C20.8292 33.9352 20.9689 33.9908 21.0849 34.1021C21.2032 34.2134 21.2624 34.3471 21.2624 34.5034C21.2624 34.6596 21.2032 34.7934 21.0849 34.9046C20.9689 35.0159 20.8292 35.0715 20.6658 35.0715ZM23.4508 34.1625V41.4352H22.6127V34.1625H23.4508ZM27.2727 41.5488C26.7472 41.5488 26.2938 41.4328 25.9126 41.2008C25.5339 40.9664 25.2415 40.6397 25.0355 40.2207C24.8319 39.7993 24.7301 39.3092 24.7301 38.7505C24.7301 38.1918 24.8319 37.6994 25.0355 37.2732C25.2415 36.8447 25.5279 36.5109 25.8949 36.2718C26.2642 36.0304 26.6951 35.9096 27.1875 35.9096C27.4716 35.9096 27.7521 35.957 28.0291 36.0517C28.3061 36.1464 28.5582 36.3002 28.7855 36.5133C29.0128 36.724 29.1939 37.0034 29.3288 37.3514C29.4638 37.6994 29.5312 38.1279 29.5312 38.6369V38.992H25.3267V38.2676H28.679C28.679 37.9598 28.6174 37.6852 28.4943 37.4437C28.3736 37.2022 28.2008 37.0116 27.9759 36.872C27.7533 36.7323 27.4905 36.6625 27.1875 36.6625C26.8537 36.6625 26.5649 36.7453 26.321 36.911C26.0795 37.0744 25.8937 37.2875 25.7635 37.5502C25.6333 37.813 25.5682 38.0947 25.5682 38.3954V38.8784C25.5682 39.2903 25.6392 39.6395 25.7812 39.9259C25.9257 40.21 26.1257 40.4267 26.3814 40.5758C26.6371 40.7226 26.9342 40.796 27.2727 40.796C27.4929 40.796 27.6918 40.7652 27.8693 40.7036C28.0492 40.6397 28.2043 40.545 28.3345 40.4196C28.4647 40.2917 28.5653 40.1331 28.6364 39.9437L29.446 40.171C29.3608 40.4456 29.2176 40.6871 29.0163 40.8954C28.8151 41.1014 28.5665 41.2624 28.2706 41.3784C27.9747 41.492 27.642 41.5488 27.2727 41.5488Z" fill="black"/>
</svg>
