<svg width="25" height="44" viewBox="0 0 25 44" fill="none" xmlns="http://www.w3.org/2000/svg">
<path d="M12.5 1.47632C11.8297 1.47632 11.1869 1.74248 10.7129 2.21624C10.2389 2.69001 9.97266 3.33257 9.97266 4.00257V6.52882H8.709V4.00257C8.709 2.99757 9.1084 2.03372 9.81935 1.32308C10.5303 0.612432 11.4946 0.213196 12.5 0.213196C13.5054 0.213196 14.4697 0.612432 15.1806 1.32308C15.8916 2.03372 16.291 2.99757 16.291 4.00257V6.52882H15.0273V4.00257C15.0273 3.33257 14.7611 2.69001 14.2871 2.21624C13.8131 1.74248 13.1703 1.47632 12.5 1.47632ZM8.709 6.52882H6.63658C6.18277 6.52892 5.74405 6.69177 5.40016 6.98776C5.05627 7.28375 4.83004 7.69325 4.76257 8.14183L3.46478 16.798C3.39754 17.2472 3.42801 17.7055 3.55411 18.1418C3.68021 18.5781 3.89898 18.9821 4.19549 19.3262C4.492 19.6703 4.85928 19.9464 5.27226 20.1358C5.68525 20.3251 6.13422 20.4231 6.58856 20.4232H18.4102C18.8646 20.4233 19.3137 20.3254 19.7269 20.1362C20.14 19.9469 20.5074 19.6708 20.8041 19.3267C21.1007 18.9826 21.3196 18.5785 21.4458 18.1421C21.572 17.7057 21.6025 17.2473 21.5352 16.798L20.2362 8.14183C20.1687 7.69347 19.9427 7.28414 19.599 6.98817C19.2554 6.6922 18.817 6.52922 18.3634 6.52882H16.291V8.42351C16.291 8.59101 16.2244 8.75165 16.1059 8.87009C15.9874 8.98853 15.8267 9.05507 15.6592 9.05507C15.4916 9.05507 15.3309 8.98853 15.2124 8.87009C15.0939 8.75165 15.0273 8.59101 15.0273 8.42351V6.52882H9.97266V8.42351C9.97266 8.59101 9.90609 8.75165 9.7876 8.87009C9.66911 8.98853 9.5084 9.05507 9.34083 9.05507C9.17326 9.05507 9.01255 8.98853 8.89406 8.87009C8.77556 8.75165 8.709 8.59101 8.709 8.42351V6.52882Z" fill="#0DA54B"/>
<path d="M4.85795 35.9687C4.81534 35.6088 4.64252 35.3295 4.33949 35.1306C4.03646 34.9317 3.66477 34.8323 3.22443 34.8323C2.90246 34.8323 2.62074 34.8844 2.37926 34.9886C2.14015 35.0927 1.95313 35.236 1.81818 35.4182C1.68561 35.6005 1.61932 35.8077 1.61932 36.0397C1.61932 36.2338 1.66548 36.4007 1.75781 36.5404C1.85251 36.6777 1.97325 36.7925 2.12003 36.8849C2.26681 36.9748 2.42069 37.0494 2.58168 37.1086C2.74266 37.1654 2.89062 37.2116 3.02557 37.2471L3.7642 37.4459C3.9536 37.4957 4.1643 37.5643 4.39631 37.6519C4.63068 37.7395 4.8544 37.8591 5.06747 38.0106C5.28291 38.1597 5.46046 38.3515 5.60014 38.5859C5.73982 38.8202 5.80966 39.1079 5.80966 39.4488C5.80966 39.8418 5.70668 40.1969 5.50071 40.5141C5.29711 40.8314 4.99882 41.0835 4.60582 41.2705C4.2152 41.4575 3.74053 41.5511 3.18182 41.5511C2.66098 41.5511 2.20999 41.467 1.82884 41.2989C1.45005 41.1308 1.15175 40.8965 0.933949 40.5958C0.718513 40.2951 0.596591 39.9459 0.568182 39.5482H1.47727C1.50095 39.8228 1.59328 40.0501 1.75426 40.23C1.91761 40.4076 2.12358 40.5402 2.37216 40.6278C2.62311 40.713 2.89299 40.7556 3.18182 40.7556C3.51799 40.7556 3.81984 40.7012 4.08736 40.5923C4.35488 40.481 4.56676 40.3271 4.72301 40.1306C4.87926 39.9317 4.95739 39.6997 4.95739 39.4346C4.95739 39.1931 4.88991 38.9966 4.75497 38.8451C4.62003 38.6936 4.44247 38.5705 4.2223 38.4758C4.00213 38.3811 3.7642 38.2982 3.50852 38.2272L2.61364 37.9715C2.04545 37.8082 1.59564 37.575 1.2642 37.2719C0.932765 36.9689 0.767045 36.5724 0.767045 36.0823C0.767045 35.6751 0.877131 35.32 1.0973 35.017C1.31984 34.7116 1.61813 34.4748 1.99219 34.3067C2.36861 34.1363 2.78883 34.0511 3.25284 34.0511C3.72159 34.0511 4.13826 34.1351 4.50284 34.3032C4.86742 34.4689 5.15625 34.6962 5.36932 34.985C5.58475 35.2738 5.69839 35.6017 5.71023 35.9687H4.85795ZM7.98207 38.142V41.4232H7.144V34.1505H7.98207V36.8209H8.05309C8.18093 36.5392 8.37269 36.3155 8.62837 36.1498C8.88642 35.9817 9.2297 35.8976 9.6582 35.8976C10.0299 35.8976 10.3554 35.9722 10.6348 36.1214C10.9141 36.2682 11.1307 36.4942 11.2846 36.7996C11.4409 37.1027 11.519 37.4886 11.519 37.9573V41.4232H10.6809V38.0141C10.6809 37.5809 10.5685 37.2459 10.3436 37.0092C10.121 36.77 9.81209 36.6505 9.41673 36.6505C9.1421 36.6505 8.89589 36.7085 8.67809 36.8245C8.46265 36.9405 8.2922 37.1098 8.16673 37.3323C8.04362 37.5548 7.98207 37.8247 7.98207 38.142ZM15.2681 41.5369C14.7757 41.5369 14.3436 41.4197 13.9719 41.1853C13.6026 40.9509 13.3138 40.623 13.1055 40.2016C12.8995 39.7802 12.7965 39.2878 12.7965 38.7244C12.7965 38.1562 12.8995 37.6602 13.1055 37.2364C13.3138 36.8127 13.6026 36.4836 13.9719 36.2492C14.3436 36.0148 14.7757 35.8976 15.2681 35.8976C15.7605 35.8976 16.1914 36.0148 16.5607 36.2492C16.9324 36.4836 17.2212 36.8127 17.4272 37.2364C17.6355 37.6602 17.7397 38.1562 17.7397 38.7244C17.7397 39.2878 17.6355 39.7802 17.4272 40.2016C17.2212 40.623 16.9324 40.9509 16.5607 41.1853C16.1914 41.4197 15.7605 41.5369 15.2681 41.5369ZM15.2681 40.784C15.6422 40.784 15.9499 40.6881 16.1914 40.4964C16.4329 40.3046 16.6116 40.0525 16.7276 39.74C16.8436 39.4275 16.9016 39.0889 16.9016 38.7244C16.9016 38.3598 16.8436 38.02 16.7276 37.7052C16.6116 37.3903 16.4329 37.1358 16.1914 36.9417C15.9499 36.7476 15.6422 36.6505 15.2681 36.6505C14.8941 36.6505 14.5863 36.7476 14.3448 36.9417C14.1033 37.1358 13.9246 37.3903 13.8086 37.7052C13.6926 38.02 13.6346 38.3598 13.6346 38.7244C13.6346 39.0889 13.6926 39.4275 13.8086 39.74C13.9246 40.0525 14.1033 40.3046 14.3448 40.4964C14.5863 40.6881 14.8941 40.784 15.2681 40.784ZM19.019 43.4687V35.9687H19.8287V36.8351H19.9281C19.9896 36.7405 20.0749 36.6197 20.1838 36.4729C20.295 36.3238 20.4537 36.1912 20.6596 36.0752C20.868 35.9568 21.1497 35.8976 21.5048 35.8976C21.9641 35.8976 22.3689 36.0125 22.7193 36.2421C23.0697 36.4717 23.3431 36.7973 23.5396 37.2187C23.7361 37.6401 23.8343 38.1372 23.8343 38.7101C23.8343 39.2878 23.7361 39.7885 23.5396 40.2123C23.3431 40.6337 23.0708 40.9604 22.7228 41.1924C22.3748 41.422 21.9735 41.5369 21.519 41.5369C21.1686 41.5369 20.8881 41.4789 20.6774 41.3628C20.4667 41.2445 20.3045 41.1107 20.1909 40.9616C20.0772 40.8101 19.9896 40.6846 19.9281 40.5851H19.8571V43.4687H19.019ZM19.8429 38.6959C19.8429 39.1079 19.9032 39.4713 20.024 39.7861C20.1447 40.0986 20.3211 40.3437 20.5531 40.5212C20.7851 40.6964 21.0692 40.784 21.4054 40.784C21.7557 40.784 22.0481 40.6917 22.2825 40.507C22.5192 40.32 22.6968 40.0691 22.8152 39.7542C22.9359 39.4369 22.9963 39.0842 22.9963 38.6959C22.9963 38.3124 22.9371 37.9668 22.8187 37.659C22.7027 37.3489 22.5263 37.1039 22.2896 36.9239C22.0552 36.7416 21.7605 36.6505 21.4054 36.6505C21.0645 36.6505 20.778 36.7369 20.546 36.9097C20.314 37.0802 20.1388 37.3193 20.0204 37.6271C19.902 37.9325 19.8429 38.2887 19.8429 38.6959Z" fill="#0DA54B"/>
</svg>
