<svg width="25" height="44" viewBox="0 0 25 44" fill="none" xmlns="http://www.w3.org/2000/svg">
<path d="M12.5 1.26332C13.1701 1.26332 13.8128 1.52952 14.2866 2.00336C14.7605 2.4772 15.0267 3.11987 15.0267 3.78997V6.31662H9.97335V3.78997C9.97335 3.11987 10.2396 2.4772 10.7134 2.00336C11.1872 1.52952 11.8299 1.26332 12.5 1.26332ZM16.29 6.31662V3.78997C16.29 2.78481 15.8907 1.82082 15.1799 1.11006C14.4692 0.3993 13.5052 0 12.5 0C11.4948 0 10.5308 0.3993 9.82009 1.11006C9.10933 1.82082 8.71003 2.78481 8.71003 3.78997V6.31662H6.63818C6.18448 6.31672 5.74588 6.47959 5.40209 6.77564C5.05829 7.07168 4.83211 7.48124 4.76467 7.92989L3.46723 16.5875C3.40001 17.0367 3.43047 17.4951 3.55654 17.9315C3.6826 18.3678 3.90131 18.7719 4.19774 19.116C4.49417 19.4602 4.86135 19.7364 5.27422 19.9257C5.6871 20.1151 6.13595 20.2131 6.59017 20.2132H18.4086C18.8629 20.2133 19.3119 20.1154 19.7249 19.9261C20.1379 19.7368 20.5053 19.4607 20.8018 19.1165C21.0984 18.7723 21.3172 18.3682 21.4434 17.9318C21.5695 17.4953 21.6 17.0368 21.5328 16.5875L20.2341 7.92989C20.1667 7.48145 19.9407 7.07206 19.5971 6.77605C19.2536 6.48003 18.8153 6.31703 18.3618 6.31662H16.29ZM15.0267 7.57995V9.47494C15.0267 9.64246 15.0932 9.80313 15.2117 9.92159C15.3301 10.04 15.4908 10.1066 15.6583 10.1066C15.8258 10.1066 15.9865 10.04 16.105 9.92159C16.2234 9.80313 16.29 9.64246 16.29 9.47494V7.57995H18.3606C18.5118 7.5801 18.6579 7.63449 18.7725 7.73325C18.887 7.83201 18.9623 7.96857 18.9846 8.11812L20.2833 16.7732C20.3239 17.0428 20.3058 17.3179 20.2302 17.5799C20.1547 17.8419 20.0235 18.0844 19.8457 18.2911C19.6678 18.4977 19.4475 18.6635 19.1997 18.7772C18.9519 18.8909 18.6825 18.9498 18.4098 18.9499H6.59017C6.31754 18.9498 6.04813 18.8909 5.80033 18.7772C5.55254 18.6635 5.33219 18.4977 5.15434 18.2911C4.97649 18.0844 4.84532 17.8419 4.76978 17.5799C4.69425 17.3179 4.67613 17.0428 4.71666 16.7732L6.01536 8.11812C6.0377 7.96878 6.11281 7.83239 6.22707 7.73366C6.34133 7.63493 6.48717 7.5804 6.63818 7.57995H8.71003V9.47494C8.71003 9.64246 8.77658 9.80313 8.89504 9.92159C9.0135 10.04 9.17416 10.1066 9.34169 10.1066C9.50922 10.1066 9.66988 10.04 9.78834 9.92159C9.9068 9.80313 9.97335 9.64246 9.97335 9.47494V7.57995H15.0267Z" fill="black"/>
<path d="M4.85795 35.7587C4.81534 35.3988 4.64252 35.1194 4.33949 34.9206C4.03646 34.7217 3.66477 34.6223 3.22443 34.6223C2.90246 34.6223 2.62074 34.6744 2.37926 34.7785C2.14015 34.8827 1.95313 35.0259 1.81818 35.2082C1.68561 35.3905 1.61932 35.5977 1.61932 35.8297C1.61932 36.0238 1.66548 36.1907 1.75781 36.3304C1.85251 36.4677 1.97325 36.5825 2.12003 36.6748C2.26681 36.7648 2.42069 36.8394 2.58168 36.8986C2.74266 36.9554 2.89062 37.0015 3.02557 37.0371L3.7642 37.2359C3.9536 37.2856 4.1643 37.3543 4.39631 37.4419C4.63068 37.5295 4.8544 37.649 5.06747 37.8006C5.28291 37.9497 5.46046 38.1415 5.60014 38.3758C5.73982 38.6102 5.80966 38.8979 5.80966 39.2388C5.80966 39.6318 5.70668 39.9869 5.50071 40.3041C5.29711 40.6213 4.99882 40.8735 4.60582 41.0605C4.2152 41.2475 3.74053 41.341 3.18182 41.341C2.66098 41.341 2.20999 41.257 1.82884 41.0889C1.45005 40.9208 1.15175 40.6864 0.933949 40.3858C0.718513 40.0851 0.596591 39.7359 0.568182 39.3382H1.47727C1.50095 39.6128 1.59328 39.8401 1.75426 40.02C1.91761 40.1976 2.12358 40.3301 2.37216 40.4177C2.62311 40.503 2.89299 40.5456 3.18182 40.5456C3.51799 40.5456 3.81984 40.4911 4.08736 40.3822C4.35488 40.271 4.56676 40.1171 4.72301 39.9206C4.87926 39.7217 4.95739 39.4897 4.95739 39.2246C4.95739 38.9831 4.88991 38.7866 4.75497 38.6351C4.62003 38.4836 4.44247 38.3604 4.2223 38.2658C4.00213 38.1711 3.7642 38.0882 3.50852 38.0172L2.61364 37.7615C2.04545 37.5981 1.59564 37.3649 1.2642 37.0619C0.932765 36.7589 0.767045 36.3623 0.767045 35.8723C0.767045 35.4651 0.877131 35.11 1.0973 34.8069C1.31984 34.5015 1.61813 34.2648 1.99219 34.0967C2.36861 33.9263 2.78883 33.841 3.25284 33.841C3.72159 33.841 4.13826 33.9251 4.50284 34.0932C4.86742 34.2589 5.15625 34.4862 5.36932 34.775C5.58475 35.0638 5.69839 35.3917 5.71023 35.7587H4.85795ZM7.98207 37.9319V41.2132H7.144V33.9405H7.98207V36.6109H8.05309C8.18093 36.3292 8.37269 36.1055 8.62837 35.9398C8.88642 35.7717 9.2297 35.6876 9.6582 35.6876C10.0299 35.6876 10.3554 35.7622 10.6348 35.9113C10.9141 36.0581 11.1307 36.2842 11.2846 36.5896C11.4409 36.8926 11.519 37.2785 11.519 37.7473V41.2132H10.6809V37.8041C10.6809 37.3709 10.5685 37.0359 10.3436 36.7991C10.121 36.56 9.81209 36.4405 9.41673 36.4405C9.1421 36.4405 8.89589 36.4985 8.67809 36.6145C8.46265 36.7305 8.2922 36.8997 8.16673 37.1223C8.04362 37.3448 7.98207 37.6147 7.98207 37.9319ZM15.2681 41.3268C14.7757 41.3268 14.3436 41.2096 13.9719 40.9753C13.6026 40.7409 13.3138 40.413 13.1055 39.9916C12.8995 39.5702 12.7965 39.0778 12.7965 38.5143C12.7965 37.9462 12.8995 37.4502 13.1055 37.0264C13.3138 36.6026 13.6026 36.2736 13.9719 36.0392C14.3436 35.8048 14.7757 35.6876 15.2681 35.6876C15.7605 35.6876 16.1914 35.8048 16.5607 36.0392C16.9324 36.2736 17.2212 36.6026 17.4272 37.0264C17.6355 37.4502 17.7397 37.9462 17.7397 38.5143C17.7397 39.0778 17.6355 39.5702 17.4272 39.9916C17.2212 40.413 16.9324 40.7409 16.5607 40.9753C16.1914 41.2096 15.7605 41.3268 15.2681 41.3268ZM15.2681 40.574C15.6422 40.574 15.9499 40.4781 16.1914 40.2863C16.4329 40.0946 16.6116 39.8425 16.7276 39.53C16.8436 39.2175 16.9016 38.8789 16.9016 38.5143C16.9016 38.1497 16.8436 37.81 16.7276 37.4952C16.6116 37.1803 16.4329 36.9258 16.1914 36.7317C15.9499 36.5375 15.6422 36.4405 15.2681 36.4405C14.8941 36.4405 14.5863 36.5375 14.3448 36.7317C14.1033 36.9258 13.9246 37.1803 13.8086 37.4952C13.6926 37.81 13.6346 38.1497 13.6346 38.5143C13.6346 38.8789 13.6926 39.2175 13.8086 39.53C13.9246 39.8425 14.1033 40.0946 14.3448 40.2863C14.5863 40.4781 14.8941 40.574 15.2681 40.574ZM19.019 43.2587V35.7587H19.8287V36.6251H19.9281C19.9896 36.5304 20.0749 36.4097 20.1838 36.2629C20.295 36.1138 20.4537 35.9812 20.6596 35.8652C20.868 35.7468 21.1497 35.6876 21.5048 35.6876C21.9641 35.6876 22.3689 35.8024 22.7193 36.0321C23.0697 36.2617 23.3431 36.5872 23.5396 37.0087C23.7361 37.4301 23.8343 37.9272 23.8343 38.5001C23.8343 39.0778 23.7361 39.5785 23.5396 40.0023C23.3431 40.4237 23.0708 40.7504 22.7228 40.9824C22.3748 41.212 21.9735 41.3268 21.519 41.3268C21.1686 41.3268 20.8881 41.2688 20.6774 41.1528C20.4667 41.0345 20.3045 40.9007 20.1909 40.7515C20.0772 40.6 19.9896 40.4746 19.9281 40.3751H19.8571V43.2587H19.019ZM19.8429 38.4859C19.8429 38.8979 19.9032 39.2613 20.024 39.5761C20.1447 39.8886 20.3211 40.1337 20.5531 40.3112C20.7851 40.4864 21.0692 40.574 21.4054 40.574C21.7557 40.574 22.0481 40.4817 22.2825 40.297C22.5192 40.11 22.6968 39.859 22.8152 39.5442C22.9359 39.2269 22.9963 38.8742 22.9963 38.4859C22.9963 38.1024 22.9371 37.7568 22.8187 37.449C22.7027 37.1389 22.5263 36.8938 22.2896 36.7139C22.0552 36.5316 21.7605 36.4405 21.4054 36.4405C21.0645 36.4405 20.778 36.5269 20.546 36.6997C20.314 36.8702 20.1388 37.1093 20.0204 37.417C19.902 37.7224 19.8429 38.0787 19.8429 38.4859Z" fill="black"/>
</svg>
